Simulation
nRows=38
nColumns=15
endheader
time  TH_x TH_y TH_z SC_y  SC_z  SC_x  AC_y  AC_z  AC_x  GH_y  GH_z  GH_yy  EL_x  PS_y
2.6910411985018725  0.000000  0.000000  0.000000  -19.906480066332445  5.075482623022575  -4.9442698434298675  58.290003226716046  9.42943588517878  8.468667625940569  -36.98721391742683  5.032565433137117  60.797309787497895  15.898626340439804  120.000000
2.7312059925093632  0.000000  0.000000  0.000000  -19.60488589745098  4.9962920217741456  -4.97760809040343  58.937381999370736  9.662108063739357  8.885685928035391  -41.903287916928946  3.65646290630111  67.50614765733334  16.647521985640708  120.000000
2.771370786516854  0.000000  0.000000  0.000000  -19.479440628698324  4.996368039748584  -4.932915556335391  59.492335825651395  9.874810432947264  9.247911788838918  -49.23045514223916  2.383409135590385  76.34685803931826  17.309928142367248  120.000000
2.8115355805243447  0.000000  0.000000  0.000000  -19.497730222129384  5.061740638231461  -4.836046508515169  59.95032790706709  10.056749263848625  9.552782942735822  -65.99145444109712  1.2391135326313498  94.34436075123061  17.860695195094287  120.000000
2.851700374531835  0.000000  0.000000  0.000000  -19.62269614820836  5.177913265702077  -4.702829300146578  60.31408575426493  10.205285931565118  9.80299029811618  -135.38142082797464  0.6277622484291494  164.71357735833033  18.28519492701966  120.000000
2.8918651685393257  0.000000  0.000000  0.000000  -19.817057705437133  5.331631675869967  -4.540834105186542  60.59251554530103  10.323763459460903  10.003916619486729  169.1280420227965  1.324899117162787  -139.04265800077593  18.5800244444215  120.000000
2.9320299625468165  0.000000  0.000000  0.000000  -20.04932884188917  5.511018694357705  -4.353871258063173  60.79684832728488  10.417503060499767  10.161800111774602  155.79276819731908  2.2588473405639586  -125.1474871836425  18.75136925250576  120.000000
2.972194756554307  0.000000  0.000000  0.000000  -20.295116114846365  5.705451069876165  -4.1450718683634395  60.93809677690467  10.49090071849423  10.282744730526126  149.9556704035017  3.1491237215228742  -118.91335538104377  18.813235631568283  120.000000
3.012359550561798  0.000000  0.000000  0.000000  -20.536728150883633  5.905987472475333  -3.9184858774145264  61.02722582834831  10.546715150072979  10.3715318186685  146.423953076262  3.9627191746848256  -115.11926460997896  18.78566813760049  120.000000
3.0525243445692882  0.000000  0.000000  0.000000  -20.76202675140585  6.105211653673703  -3.6790217957606073  61.07481596873474  10.586114033220253  10.431458885507336  143.92723943072028  4.690597202805588  -112.46870742469855  18.691817773810474  120.000000
3.092689138576779  0.000000  0.000000  0.000000  -20.963615508944475  6.296591491539676  -3.4319039556526816  61.0906402039591  10.608865437392721  10.46531343231602  142.0213788939708  5.32930458123607  -110.49355809753295  18.555404018904255  120.000000
3.1328539325842697  0.000000  0.000000  0.000000  -21.137752559087637  6.474180060523208  -3.1824542462208605  61.08355230861718  10.61363534334513  10.476077511307574  140.51937860983983  5.877634168656846  -108.98494023153138  18.398068189605734  120.000000
3.1730187265917604  0.000000  0.000000  0.000000  -21.28318767946285  6.632872787539653  -2.9361091206136845  61.061761237864026  10.598547614901092  10.466460524079212  139.33419083103885  6.335441359999612  -107.83619932191188  18.23686588343735  120.000000
3.2131835205992507  0.000000  0.000000  0.000000  -21.400513904897295  6.768694305022786  -2.6980209345822628  61.03254406322228  10.561611924410153  10.438804737700325  138.4252943157794  6.703023873405886  -106.98932110105541  18.082994592095424  120.000000
3.2533483146067415  0.000000  0.000000  0.000000  -21.49141624253457  6.878901793203135  -2.472794543181758  61.00184113430882  10.501031177702076  10.395328273710275  137.77536397850164  6.980811699703391  -106.41164088124101  17.941883679585167  120.000000
3.293513108614232  0.000000  0.000000  0.000000  -21.557988003047694  6.961796289935219  -2.26437137808136  60.97426922052001  10.415477927165385  10.338025278234875  137.3791324840574  7.1694266683853805  -106.0846277199103  17.814334634595625  120.000000
3.333677902621723  0.000000  0.000000  0.000000  -21.602253393194815  7.0165886357778176  -2.076055906782442  60.95298381330597  10.304066414464852  10.26889555665679  137.2397617119305  7.269708776314541  -106.0001811954744  17.698341500298568  120.000000
3.3738426966292137  0.000000  0.000000  0.000000  -21.625856361275698  7.043288676474795  -1.910549188678168  60.939983375464166  10.16642797352705  10.189824864412527  137.36594404408214  7.282949900018671  -106.15769309602385  17.59092900203232  120.000000
3.414007490636704  0.000000  0.000000  0.000000  -21.630016790471814  7.042417062064843  -1.7699275296268402  60.93587836737106  10.002683338098734  10.102852925003546  137.77220433638493  7.210847056714078  -106.56434869478042  17.489465506874957  120.000000
3.4541722846441947  0.000000  0.000000  0.000000  -21.61571059807265  7.014654332117683  -1.6555146276624269  60.93950010342091  9.813474645933988  10.010385900928286  138.48256315587943  7.055288372128811  -107.2387117712597  17.39232256686847  120.000000
3.4943370786516854  0.000000  0.000000  0.000000  -21.583558067399565  6.961223019252491  -1.5681102191201264  60.94858179996343  9.600003523495499  9.914690452185512  139.5311501817847  6.818587883599583  -108.21137290087097  17.298944846685284  120.000000
3.534501872659176  0.000000  0.000000  0.000000  -21.533740883627498  6.884350007497923  -1.5082868516917067  60.96088313195837  9.364198732021714  9.817060582063739  140.9626441398408  6.50398577986328  -109.52555320712432  17.209279910674297  120.000000
3.574666666666667  0.000000  0.000000  0.000000  -21.466328126048598  6.786915168871941  -1.4762966808844835  60.973763060394404  9.108653903995354  9.718042684705273  142.84405318139807  6.1153936823077375  -111.24872474685445  17.12276746712969  120.000000
3.614831460674157  0.000000  0.000000  0.000000  -21.381577920929494  6.671956651573536  -1.4719196190266957  60.983791487120726  8.836401684178634  9.617890233644404  145.2777251215666  5.6577047304108685  -113.48584017404332  17.037240651003163  120.000000
3.654996254681648  0.000000  0.000000  0.000000  -21.279816159366554  6.542372486620612  -1.4942532992646353  60.987188441627566  8.551008580613193  9.51695335438067  148.4187123400017  5.137547292679327  -116.39673152992053  16.9485292517667  120.000000
3.6951610486891386  0.000000  0.000000  0.000000  -21.161250586559326  6.401099342200616  -1.5416666505001146  60.9803530118772  8.256820062360685  9.415614176674215  152.50667065030197  4.564025669229048  -120.2283047329966  16.850452915828743  120.000000
3.7353258426966294  0.000000  0.000000  0.000000  -21.026097169654314  6.2514184992000805  -1.611838057380083  60.96007057340635  7.959148699011892  9.314047172703217  157.9369972573029  3.9496914831619376  -125.3858589507661  16.734993738965862  120.000000
3.7754906367041197  0.000000  0.000000  0.000000  -20.87478173456483  6.096962837520081  -1.7017998370590048  60.923185877545976  7.664220397093241  9.212158452048367  165.41493048479774  3.3130789965593146  -132.58739571934223  16.59308731188203  120.000000
3.8156554307116104  0.000000  0.000000  0.000000  -20.708233150133964  5.941639131575918  -1.8081392840799206  60.866538038977374  7.37897295808393  9.109540100293891  176.27326577500514  2.685716572607802  -143.18155406889807  16.415382852761685  120.000000
3.855820224719101  0.000000  0.000000  0.000000  -20.527774986920218  5.789572353197327  -1.927236893216253  60.787239330164155  7.1108960352301676  9.005137745135553  -167.02655620114714  2.1300963302308307  -159.64897170669641  16.19343733848418  120.000000
3.895985018726592  0.000000  0.000000  0.000000  -20.33546541959032  5.645310488230365  -2.05522819444821  60.68290006949472  6.868143918371616  8.897543436830558  -141.48642464581079  1.7734650991970318  174.98936769129506  15.920817753609152  120.000000
3.9361498127340826  0.000000  0.000000  0.000000  -20.134519984894297  5.513744017786458  -2.1871813134670406  60.55114608733251  6.65993705768834  8.785229208961237  -109.93056842584808  1.7889443077917009  143.53068589559595  15.593798537199367  120.000000
3.976314606741573  0.000000  0.000000  0.000000  -19.928554434754403  5.399884269056049  -2.3166239253385355  60.38903210570702  6.497300639163019  8.666883919987047  -83.11148661912192  2.2060422062141916  116.698866852294  15.212515146265943  120.000000
4.016479400749064  0.000000  0.000000  0.000000  -19.719742962486237  5.309565708360926  -2.4360953977733577  60.1939849723964  6.392512544153627  8.541193487139008  -64.59178893294109  2.8962985031395587  98.03159453760938  14.782310647282422  120.000000
4.056644194756554  0.000000  0.000000  0.000000  -19.507291742283723  5.249783791886497  -2.537747735487303  59.964954824592446  6.358781115077618  8.406664241794154  -51.73197940955182  3.765361922766157  84.87131081313026  14.315262717168459  120.000000
4.096808988764045  0.000000  0.000000  0.000000  -19.288773529173724  5.227586392651262  -2.6115517232009045  59.70134141492041  6.410885371003469  8.263524659312788  -42.22930650602852  4.783314844993125  74.90372727901375  13.828946180567701  120.000000
4.136973782771536  0.000000  0.000000  0.000000  -19.06246117002207  5.249155159796952  -2.643292599130648  59.40007000740061  6.5653904662191005  8.114954651437676  -34.87878246674803  5.953141658540139  66.91912668646654  13.344086917942423  120.000000
4.177138576779027  0.000000  0.000000  0.000000  -18.828876387947307  5.321553020024689  -2.618385115266429  59.058380007377835  6.839575060727312  7.965421031077941  -29.077995061995694  7.288807203516027  60.317888691471275  12.882741122727634  120.000000
